<?xml version="1.0" encoding="UTF-8" standalone="no" ?>
<!DOCTYPE svg PUBLIC "-//W3C//DTD SVG 1.1//EN" "http://www.w3.org/Graphics/SVG/1.1/DTD/svg11.dtd">
<svg xmlns="http://www.w3.org/2000/svg" xmlns:xlink="http://www.w3.org/1999/xlink" version="1.1" width="640" height="640" viewBox="0 0 640 640" xml:space="preserve">
<desc>Created with Fabric.js 4.6.0</desc>
<defs>
</defs>
<g transform="matrix(1 0 0 1 570 320)" id="ppK6DwMDq1OpSYvIrdxfM"  >
<path style="stroke: rgb(113,38,154); stroke-width: 0; stroke-dasharray: none; stroke-linecap: butt; stroke-dashoffset: 0; stroke-linejoin: miter; stroke-miterlimit: 4; fill: rgb(0,0,0); fill-rule: nonzero; opacity: 1;" vector-effect="non-scaling-stroke"  transform=" translate(-25, -275)" d="M 0 0 L 50 0 L 50 550 L 0 550 z" stroke-linecap="round" />
</g>
<g transform="matrix(1 0 0 1 320 70)" id="t3mP75TgpU0RxenouX8ar"  >
<path style="stroke: rgb(113,38,154); stroke-width: 0; stroke-dasharray: none; stroke-linecap: butt; stroke-dashoffset: 0; stroke-linejoin: miter; stroke-miterlimit: 4; fill: rgb(0,0,0); fill-rule: nonzero; opacity: 1;" vector-effect="non-scaling-stroke"  transform=" translate(-275, -25)" d="M 0 0 L 550 0 L 550 50 L 0 50 z" stroke-linecap="round" />
</g>
<g transform="matrix(1 0 0 1 320 570)" id="nKDEecKtLcvgmyuZlZMdd"  >
<path style="stroke: rgb(113,38,154); stroke-width: 0; stroke-dasharray: none; stroke-linecap: butt; stroke-dashoffset: 0; stroke-linejoin: miter; stroke-miterlimit: 4; fill: rgb(0,0,0); fill-rule: nonzero; opacity: 1;" vector-effect="non-scaling-stroke"  transform=" translate(-275, -25)" d="M 0 0 L 550 0 L 550 50 L 0 50 z" stroke-linecap="round" />
</g>
<g transform="matrix(1 0 0 1 220 325)" id="v84CShMJGBLs4I8n2D8Qz"  >
<path style="stroke: rgb(0,0,0); stroke-width: 0; stroke-dasharray: none; stroke-linecap: butt; stroke-dashoffset: 0; stroke-linejoin: miter; stroke-miterlimit: 4; fill: rgb(0,0,0); fill-rule: nonzero; opacity: 1;" vector-effect="non-scaling-stroke"  transform=" translate(-25, -175)" d="M 0 0 L 50 0 L 50 350 L 0 350 z" stroke-linecap="round" />
</g>
<g transform="matrix(1 0 0 1 320 245)" id="Ez-Wind7stswoSR8QWCft"  >
<path style="stroke: rgb(113,38,154); stroke-width: 0; stroke-dasharray: none; stroke-linecap: butt; stroke-dashoffset: 0; stroke-linejoin: miter; stroke-miterlimit: 4; fill: rgb(0,0,0); fill-rule: nonzero; opacity: 1;" vector-effect="non-scaling-stroke"  transform=" translate(-25, -100)" d="M 0 0 L 50 0 L 50 200 L 0 200 z" stroke-linecap="round" />
</g>
<g transform="matrix(1 0 0 1 470 395)" id="lNT_Fv2i4dQPU2yewkSY9"  >
<path style="stroke: rgb(0,0,0); stroke-width: 0; stroke-dasharray: none; stroke-linecap: butt; stroke-dashoffset: 0; stroke-linejoin: miter; stroke-miterlimit: 4; fill: rgb(0,0,0); fill-rule: nonzero; opacity: 1;" vector-effect="non-scaling-stroke"  transform=" translate(-25, -50)" d="M 0 0 L 50 0 L 50 100 L 0 100 z" stroke-linecap="round" />
</g>
<g transform="matrix(1 0 0 1 145 320)" id="clte7PTsk4ARu4bZUwNEz"  >
<path style="stroke: rgb(0,0,0); stroke-width: 0; stroke-dasharray: none; stroke-linecap: butt; stroke-dashoffset: 0; stroke-linejoin: miter; stroke-miterlimit: 4; fill: rgb(0,0,0); fill-rule: nonzero; opacity: 1;" vector-effect="non-scaling-stroke"  transform=" translate(-100, -25)" d="M 0 0 L 200 0 L 200 50 L 0 50 z" stroke-linecap="round" />
</g>
<g transform="matrix(1 0 0 1 395 320)" id="VUmsQNqeJc-h2rW9-7pRY"  >
<path style="stroke: rgb(0,0,0); stroke-width: 0; stroke-dasharray: none; stroke-linecap: butt; stroke-dashoffset: 0; stroke-linejoin: miter; stroke-miterlimit: 4; fill: rgb(0,0,0); fill-rule: nonzero; opacity: 1;" vector-effect="non-scaling-stroke"  transform=" translate(-100, -25)" d="M 0 0 L 200 0 L 200 50 L 0 50 z" stroke-linecap="round" />
</g>
<g transform="matrix(1 0 0 1 395 170)" id="D_tG79Sk2tfnf92UEpicY"  >
<path style="stroke: rgb(113,38,154); stroke-width: 0; stroke-dasharray: none; stroke-linecap: butt; stroke-dashoffset: 0; stroke-linejoin: miter; stroke-miterlimit: 4; fill: rgb(0,0,0); fill-rule: nonzero; opacity: 1;" vector-effect="non-scaling-stroke"  transform=" translate(-100, -25)" d="M 0 0 L 200 0 L 200 50 L 0 50 z" stroke-linecap="round" />
</g>
<g transform="matrix(1 0 0 1 395 470)" id="yvap8YCHLwYnGPORxUgiA"  >
<path style="stroke: rgb(113,38,154); stroke-width: 0; stroke-dasharray: none; stroke-linecap: butt; stroke-dashoffset: 0; stroke-linejoin: miter; stroke-miterlimit: 4; fill: rgb(0,0,0); fill-rule: nonzero; opacity: 1;" vector-effect="non-scaling-stroke"  transform=" translate(-100, -25)" d="M 0 0 L 200 0 L 200 50 L 0 50 z" stroke-linecap="round" />
</g>
<g transform="matrix(1 0 0 1 70 325)" id="V13D_uOBF9LbV-HogxMSj"  >
<path style="stroke: rgb(113,38,154); stroke-width: 0; stroke-dasharray: none; stroke-linecap: butt; stroke-dashoffset: 0; stroke-linejoin: miter; stroke-miterlimit: 4; fill: rgb(0,0,0); fill-rule: nonzero; opacity: 1;" vector-effect="non-scaling-stroke"  transform=" translate(-25, -175)" d="M 0 0 L 50 0 L 50 350 L 0 350 z" stroke-linecap="round" />
</g>
</svg>