<svg xmlns="http://www.w3.org/2000/svg" viewBox="0 0 60 60" fill="#ffaf49">
  <rect width="60" height="60" opacity=".1" rx="15"/>
  <path fill-rule="evenodd"  d="M30.8,29.9a1,1,0,0,1-2,0V15.6a1.22,1.22,0,0,0-1.2-1.2,1.31,1.31,0,0,0-1.2,1.3V34.5a1,1,0,0,1-.52.88,1,1,0,0,1-1,0l-4.6-3,0,0a1.56,1.56,0,0,0-2.35,2h0l5.8,9.59h0A6.51,6.51,0,0,0,29.2,47h6.3A6.55,6.55,0,0,0,42,40.5V29.2a1.2,1.2,0,0,0-2.4,0V30a1,1,0,0,1-2,0V27.7a1.2,1.2,0,0,0-2.4,0V30a1,1,0,0,1-2,0V26.1a1.2,1.2,0,0,0-2.4,0Zm0-14.3a3.22,3.22,0,0,0-3.2-3.2,3.31,3.31,0,0,0-3.2,3.3v17l-3-2a3.56,3.56,0,0,0-5.23,4.63h0l5.8,9.59A8.53,8.53,0,0,0,29.2,49h6.3A8.56,8.56,0,0,0,44,40.5V29.2a3.2,3.2,0,0,0-4.69-2.83A3.22,3.22,0,0,0,36.4,24.5a3.15,3.15,0,0,0-1.46.36,3.21,3.21,0,0,0-2.94-2,3,3,0,0,0-1.2.24Z"/>
</svg>
