<svg xmlns="http://www.w3.org/2000/svg" viewBox="0 0 60 60" fill="#ffaf49">
  <rect width="60" height="60" opacity=".1" rx="15"/>
  <path fill-rule="evenodd" d="M35.5504 13.9998C36.9291 13.9863 38.2968 14.246 39.5747 14.7638C40.8543 15.2823 42.0185 16.0494 42.9998 17.0206C43.9811 17.9919 44.7601 19.1481 45.2918 20.4223C45.8234 21.6966 46.0972 23.0635 46.0972 24.4443C46.0972 25.825 45.8234 27.192 45.2918 28.4662C44.7601 29.7405 43.9811 30.8966 42.9998 31.8679C42.0185 32.8392 40.8543 33.6062 39.5747 34.1248C38.2962 34.6428 36.9276 34.9025 35.5482 34.8888C34.5168 34.8849 33.4917 34.7417 32.5005 34.4638L30.4873 36.4837C30.2996 36.672 30.0448 36.7778 29.779 36.7778H26.162V40.3848C26.162 40.9371 25.7143 41.3848 25.162 41.3848H21.556V44.9998C21.556 45.5521 21.1083 45.9998 20.556 45.9998H15.001C14.4487 45.9998 14.001 45.5521 14.001 44.9998V39.4448C14.001 39.1797 14.1063 38.9254 14.2937 38.7379L25.5382 27.4866C25.2757 26.5007 25.1325 25.4862 25.1122 24.4647L25.112 24.4459C25.1104 23.0738 25.3794 21.7148 25.9038 20.4467C26.4281 19.1787 27.1974 18.0265 28.1676 17.0562C29.1379 16.0859 30.2899 15.3165 31.5579 14.792C32.8238 14.2684 34.1805 13.9992 35.5504 13.9998ZM35.5526 15.9998C35.5534 15.9998 35.5542 15.9998 35.555 15.9998H35.556M35.5526 15.9998C34.4442 15.9989 33.3466 16.2165 32.3223 16.6401C31.2974 17.0641 30.3662 17.686 29.5819 18.4703C28.7977 19.2547 28.1758 20.186 27.752 21.211C27.3294 22.2331 27.1119 23.3283 27.112 24.4343C27.1334 25.4655 27.3034 26.4883 27.6167 27.471C27.7303 27.8273 27.6356 28.2172 27.3713 28.4817L16.001 39.8588V43.9998H19.556V40.3848C19.556 39.8325 20.0037 39.3848 20.556 39.3848H24.162V35.7778C24.162 35.2255 24.6097 34.7778 25.162 34.7778H29.3638L31.5107 32.6238C31.7803 32.3534 32.1803 32.26 32.5417 32.3833C33.5131 32.7145 34.532 32.8853 35.5584 32.8888L35.5653 32.8888V32.8888C36.6815 32.9003 37.789 32.6904 38.8236 32.2711C39.8582 31.8519 40.7995 31.2317 41.5929 30.4464C42.3863 29.6612 43.0161 28.7263 43.446 27.6961C43.8758 26.6658 44.0972 25.5606 44.0972 24.4443C44.0972 23.3279 43.8758 22.2227 43.446 21.1924C43.0161 20.1622 42.3863 19.2274 41.5929 18.4421C40.7995 17.6568 39.8582 17.0366 38.8236 16.6174C37.7907 16.1989 36.6852 15.9889 35.5709 15.9997M38.2143 21.288C37.8489 21.1366 37.4468 21.097 37.0588 21.1742C36.6708 21.2514 36.3145 21.4418 36.0348 21.7216C35.7551 22.0013 35.5646 22.3576 35.4874 22.7456C35.4102 23.1335 35.4498 23.5357 35.6012 23.9011C35.7526 24.2666 36.0089 24.5789 36.3378 24.7987C36.6667 25.0185 37.0534 25.1358 37.449 25.1358V26.1358L37.4671 25.1359C37.7287 25.1407 37.9886 25.0926 38.2312 24.9947C38.4738 24.8968 38.6942 24.751 38.8792 24.566C39.0642 24.381 39.21 24.1606 39.3079 23.918C39.4059 23.6754 39.4539 23.4155 39.4491 23.1539L39.449 23.1358C39.449 22.7402 39.3317 22.3535 39.1119 22.0246C38.8922 21.6957 38.5798 21.4394 38.2143 21.288ZM37.4399 27.1357C36.652 27.134 35.882 26.8995 35.2267 26.4616C34.5689 26.0221 34.0562 25.3974 33.7535 24.6665C33.4507 23.9356 33.3715 23.1313 33.5258 22.3554C33.6802 21.5795 34.0612 20.8667 34.6206 20.3073C35.18 19.7479 35.8927 19.367 36.6686 19.2126C37.4445 19.0583 38.2488 19.1375 38.9797 19.4403C39.7106 19.743 40.3353 20.2557 40.7749 20.9135C41.2127 21.5688 41.4472 22.3387 41.449 23.1266C41.4573 23.6539 41.36 24.1775 41.1626 24.6666C40.964 25.1584 40.6684 25.6052 40.2934 25.9802C39.9184 26.3552 39.4716 26.6508 38.9798 26.8494C38.4907 27.0467 37.9671 27.1441 37.4399 27.1357Z"/>
</svg>
