<svg xmlns="http://www.w3.org/2000/svg" viewBox="0 0 60 60" fill="#ffaf49">
  <rect width="60" height="60" opacity=".1" rx="15"/>
  <path fill-rule="evenodd" d="M26.001 14.9998C24.2771 14.9998 22.6238 15.6846 21.4048 16.9036C20.1858 18.1225 19.501 19.7758 19.501 21.4998V26.4998H32.501V21.4998C32.501 20.522 32.2807 19.567 31.8676 18.7011C31.8356 18.6487 31.809 18.5945 31.7876 18.5392C31.4814 17.9407 31.0815 17.3878 30.5972 16.9036C29.3782 15.6846 27.7249 14.9998 26.001 14.9998ZM33.1155 16.8485C32.7976 16.3622 32.4284 15.9064 32.0114 15.4893C30.4173 13.8953 28.2553 12.9998 26.001 12.9998C23.7466 12.9998 21.5846 13.8953 19.9906 15.4893C18.3965 17.0834 17.501 19.2454 17.501 21.4998V26.4998H17.001C14.7918 26.4998 13.001 28.2906 13.001 30.4998V43.9998C13.001 46.2089 14.7918 47.9998 17.001 47.9998H35.001C36.5825 47.9998 37.9497 47.0819 38.5989 45.7498H43.501C45.434 45.7498 47.001 44.1828 47.001 42.2498V30.9998C47.001 29.0668 45.434 27.4998 43.501 27.4998H43.251V23.4998C43.251 21.5769 42.4871 19.7329 41.1275 18.3732C39.768 17.0137 37.9241 16.2499 36.0014 16.2498M41.251 27.4998V23.4998C41.251 22.1074 40.6979 20.772 39.7133 19.7874C38.7287 18.8029 37.3934 18.2498 36.001 18.2498H36.0006C35.3139 18.2495 34.6367 18.3841 34.0066 18.6431C34.3307 19.5515 34.501 20.5168 34.501 21.4998V26.4998H35.001C36.0154 26.4998 36.9417 26.8774 37.6468 27.4998H41.251ZM38.875 29.4998H42.251H43.501C44.3294 29.4998 45.001 30.1713 45.001 30.9998V42.2498C45.001 43.0782 44.3294 43.7498 43.501 43.7498H39.001V30.4998C39.001 30.1545 38.9572 29.8194 38.875 29.4998ZM36.4367 29.1073C36.4684 29.1487 36.5032 29.1876 36.5409 29.2235C36.8282 29.5698 37.001 30.0146 37.001 30.4998V43.9998C37.001 45.1043 36.1055 45.9998 35.001 45.9998H17.001C15.8964 45.9998 15.001 45.1043 15.001 43.9998V30.4998C15.001 29.3952 15.8964 28.4998 17.001 28.4998H18.501H33.501H35.001C35.5643 28.4998 36.0732 28.7326 36.4367 29.1073ZM36.001 16.2498C35.0046 16.2494 34.0227 16.4547 33.1155 16.8485ZM26.001 33.9998C26.5533 33.9998 27.001 34.4475 27.001 34.9998V39.4998C27.001 40.052 26.5533 40.4998 26.001 40.4998C25.4487 40.4998 25.001 40.052 25.001 39.4998V34.9998C25.001 34.4475 25.4487 33.9998 26.001 33.9998Z"/>
</svg>
